# xmcd
#
# Track frame offsets:
#	150
#	19762
#	36395
#	56657
#	75408
#	87255
#	99570
#	122596
#	143675
#	158039
#	174277
#	186859
#
# Disc length: 2706 seconds
# Revision: 0
# Processed by: cddbd v1.5.2PL0 Copyright (c) Steve Scherf et al.
# Submitted via: dBpowerAMP V12.0
#
DISCID=8f0a900c
DTITLE=Barry Ward - Whispers of the West
DYEAR=2009
DGENRE=Country
TTITLE0=Whispers of the West
TTITLE1=The Devil's Runnin' Again
TTITLE2=Dream Trails
TTITLE3=Sweet Wyoming Kiss
TTITLE4=Young Farmers and Ranchers
TTITLE5=Drifting With the Western Wind
TTITLE6=I'm not a Brother
TTITLE7=That Old Barn
TTITLE8=Dance Around the Barn
TTITLE9=You're the Reason God Made Oklahoma
TTITLE10=Can You Imagine?
TTITLE11=Hills of Ireland
EXTD=
EXTT0=
EXTT1=
EXTT2=
EXTT3=
EXTT4=
EXTT5=
EXTT6=
EXTT7=
EXTT8=
EXTT9=
EXTT10=
EXTT11=
PLAYORDER=
